<?xml version="1.0" encoding="UTF-8"?><svg id="Layer_2" xmlns="http://www.w3.org/2000/svg" xmlns:xlink="http://www.w3.org/1999/xlink" viewBox="0 0 756.67 347.84"><defs><style>.cls-1{fill:#fff;}.cls-2{fill:#efbfac;}.cls-3{fill:#5179c3;font-family:SpaceGrotesk-Bold, 'Space Grotesk';}.cls-4{fill:url(#linear-gradient-17);stroke:url(#linear-gradient-18);}.cls-4,.cls-5,.cls-6,.cls-7,.cls-8,.cls-9,.cls-10,.cls-11,.cls-12{stroke-miterlimit:10;stroke-width:1px;}.cls-13{letter-spacing:0em;}.cls-14{font-family:SpaceGrotesk-Regular, 'Space Grotesk';}.cls-5{fill:url(#linear-gradient-3);stroke:url(#linear-gradient-4);}.cls-6{fill:url(#linear-gradient-7);stroke:url(#linear-gradient-8);}.cls-15{fill:#e1e1e1;}.cls-7{fill:url(#linear-gradient-11);stroke:url(#linear-gradient-12);}.cls-16{font-size:127.56px;}.cls-8{fill:url(#linear-gradient-15);stroke:url(#linear-gradient-16);}.cls-17{fill:#f1e6cf;}.cls-9{fill:url(#linear-gradient-9);stroke:url(#linear-gradient-10);}.cls-10{fill:url(#linear-gradient-13);stroke:url(#linear-gradient-14);}.cls-11{fill:url(#linear-gradient-5);stroke:url(#linear-gradient-6);}.cls-12{fill:url(#linear-gradient);stroke:url(#linear-gradient-2);}</style><linearGradient id="linear-gradient" x1="679.1" y1="30.4" x2="706.97" y2="428.96" gradientTransform="translate(-309.39 -428.77) rotate(45)" gradientUnits="userSpaceOnUse"><stop offset=".03" stop-color="#77accf"/><stop offset=".16" stop-color="#6594c9"/><stop offset=".36" stop-color="#5179c3"/><stop offset=".57" stop-color="#4265bf"/><stop offset=".77" stop-color="#3959bc"/><stop offset=".98" stop-color="#3756bc"/></linearGradient><linearGradient id="linear-gradient-2" x1="647.87" y1="175.27" x2="730.6" y2="175.27" gradientTransform="translate(-309.39 -428.77) rotate(45)" gradientUnits="userSpaceOnUse"><stop offset="0" stop-color="#77accf"/><stop offset=".19" stop-color="#72a6cd"/><stop offset=".43" stop-color="#6695c9"/><stop offset=".71" stop-color="#5179c3"/><stop offset="1" stop-color="#3756bc"/><stop offset="1" stop-color="#6d7aa8"/><stop offset="1" stop-color="#999"/></linearGradient><linearGradient id="linear-gradient-3" y1="30.4" x2="706.97" y2="428.96" gradientTransform="translate(-300.63 -472.78) rotate(45)" xlink:href="#linear-gradient"/><linearGradient id="linear-gradient-4" x1="647.87" x2="730.6" gradientTransform="translate(-300.63 -472.78) rotate(45)" xlink:href="#linear-gradient-2"/><linearGradient id="linear-gradient-5" x1="679.1" y1="30.4" x2="706.97" y2="428.96" gradientTransform="translate(-275.71 -510.08) rotate(45)" xlink:href="#linear-gradient"/><linearGradient id="linear-gradient-6" x1="647.87" y1="175.27" x2="730.6" y2="175.27" gradientTransform="translate(-275.71 -510.08) rotate(45)" xlink:href="#linear-gradient-2"/><linearGradient id="linear-gradient-7" x1="679.1" y1="30.4" x2="706.97" y2="428.96" gradientTransform="translate(-238.4 -535.01) rotate(45)" xlink:href="#linear-gradient"/><linearGradient id="linear-gradient-8" x1="647.87" gradientTransform="translate(-238.4 -535.01) rotate(45)" xlink:href="#linear-gradient-2"/><linearGradient id="linear-gradient-9" gradientTransform="translate(-194.4 -543.76) rotate(45)" xlink:href="#linear-gradient"/><linearGradient id="linear-gradient-10" x1="647.87" y1="175.27" y2="175.27" gradientTransform="translate(-194.4 -543.76) rotate(45)" xlink:href="#linear-gradient-2"/><linearGradient id="linear-gradient-11" y1="30.4" y2="428.96" gradientTransform="translate(-150.39 -535.01) rotate(45)" xlink:href="#linear-gradient"/><linearGradient id="linear-gradient-12" x1="647.87" y1="175.27" x2="730.6" y2="175.27" gradientTransform="translate(-150.39 -535.01) rotate(45)" xlink:href="#linear-gradient-2"/><linearGradient id="linear-gradient-13" x1="679.1" y1="30.4" x2="706.97" y2="428.96" gradientTransform="translate(-113.09 -510.08) rotate(45)" xlink:href="#linear-gradient"/><linearGradient id="linear-gradient-14" x1="647.87" x2="730.6" gradientTransform="translate(-113.09 -510.08) rotate(45)" xlink:href="#linear-gradient-2"/><linearGradient id="linear-gradient-15" x1="679.1" x2="706.97" gradientTransform="translate(-88.16 -472.78) rotate(45)" xlink:href="#linear-gradient"/><linearGradient id="linear-gradient-16" x1="647.87" x2="730.6" gradientTransform="translate(-88.16 -472.78) rotate(45)" xlink:href="#linear-gradient-2"/><linearGradient id="linear-gradient-17" x1="679.1" x2="706.97" gradientTransform="translate(-79.41 -428.77) rotate(45)" xlink:href="#linear-gradient"/><linearGradient id="linear-gradient-18" x1="647.87" y1="175.27" x2="730.6" y2="175.27" gradientTransform="translate(-79.41 -428.77) rotate(45)" xlink:href="#linear-gradient-2"/></defs><g id="Pages"><g><g id="_Radial_Repeat_"><rect class="cls-12" x="46.38" y="132.7" width="15.33" height="99.66" transform="translate(-128.48 236.57) rotate(-90)"/></g><g id="_Radial_Repeat_-2"><rect class="cls-5" x="55.13" y="88.69" width="15.33" height="99.66" transform="translate(-89.21 143.53) rotate(-67.5)"/></g><g id="_Radial_Repeat_-3"><rect class="cls-11" x="80.06" y="51.38" width="15.33" height="99.66" transform="translate(-45.87 91.68) rotate(-45)"/></g><g id="_Radial_Repeat_-4"><rect class="cls-6" x="117.36" y="26.46" width="15.33" height="99.66" transform="translate(-19.68 53.65) rotate(-22.5)"/></g><g id="_Radial_Repeat_-5"><rect class="cls-9" x="161.37" y="17.71" width="15.33" height="99.66"/></g><g id="_Radial_Repeat_-6"><rect class="cls-7" x="205.37" y="26.46" width="15.33" height="99.66" transform="translate(45.41 -75.72) rotate(22.5)"/></g><g id="_Radial_Repeat_-7"><rect class="cls-10" x="242.68" y="51.38" width="15.33" height="99.66" transform="translate(144.89 -147.38) rotate(45)"/></g><g id="_Radial_Repeat_-8"><rect class="cls-8" x="267.61" y="88.69" width="15.33" height="99.66" transform="translate(297.9 -168.81) rotate(67.5)"/></g><g id="_Radial_Repeat_-9"><rect class="cls-4" x="276.36" y="132.69" width="15.33" height="99.66" transform="translate(466.55 -101.5) rotate(90)"/></g></g><g><path class="cls-15" d="M13,206.76c-.55,.89-1.07,1.78-1.55,2.63,.88-.32,4-1.38,8.44-2.42-1.39-.21-4.72-.62-6.89-.22Z"/><path d="M247.24,195.96c.72,.05,1.43,.11,2.13,.19-.71-.08-1.42-.13-2.13-.19Z"/><path class="cls-17" d="M183.4,223.72l2.1,1.57,9.39-9.29h126.63c-5.7-1.83-29.46-9.1-56.18-11.98-28-3.02-65.1-1.65-81.94,19.7Z"/><polygon class="cls-1" points="154.78 227.5 183.26 227.5 185.46 225.32 166.07 212.04 164.25 214.12 164.27 214.17 164.23 214.14 153.54 226.26 154.78 227.5"/><g><path class="cls-17" d="M109.31,210.87c6.48-.04,11.91-.19,15.23-.31-7.53-3.06-18.14-6.6-31.06-8.86-7.15,.56-14.13,1.39-20.77,2.39,8.38,.77,26.54,2.84,35.48,6.8,.38,0,.75,0,1.13,0Z"/><path class="cls-17" d="M20.79,216h115.34c-1.43-.79-4.26-2.28-8.32-4.06-1.24-.01-8.85-.09-18.71-.03-10.64,.06-20.11,.25-28.16,.56-10.98,.42-19.02,1.06-23.89,1.9,4.68-1.67,11.71-2.82,22.76-3.24,7.53-.29,17.43-.21,27.38-.25-10.59-4.2-32.9-5.97-37.67-6.31-24.4,3.9-43.6,9.78-48.73,11.43Z"/><path class="cls-17" d="M88.39,200.87c-4.59-.69-10.61-1.42-18.5-.99-2.32,.12-4.73,.35-7.16,.66,1.78-1.05,10-1.58,11.19-1.61,6.16-.17,11.84,.18,16.59,.72l.22,.03c15.69,2.44,28.63,7.04,37.2,10.74,.06,0,.1,0,.1,0v.05c6.87,2.97,10.89,5.35,11.21,5.54h4.06l8.72,8.73,11.4-11.16-.69-.48c-.63-.41-62.21-40.09-119.44-38.65-.65,.42-3.33,2.18-6.74,4.96,2.91-.17,9.54,.02,24.08,1.28l-25.24-.32c-2.58,2.17-5.46,4.85-8.18,7.94,3.8-.49,20.58-.86,29.47-.11,17.09-.9,39.67,.84,65.87,9.93,6.46,2.24,18.89,7.59,20.75,9.57-6.36-2.93-13.98-5.6-20.39-7.83-55.66-19.31-95.58-5.49-99.94-3.85-3.31,1.24-6.75,5.61-9.51,9.98,6.8-1.21,15.32,1.08,15.68,1.13-8.75,.24-16.93,2.56-18.06,2.9-1.51,2.73-2.61,5.03-3.04,5.96h11.84c5.12-1.9,33.6-11.99,68.51-15.13Z"/><path class="cls-17" d="M233.74,173.28c-34.05,.69-51.34,14.43-59.84,25.82-4.44,5.94-6.26,11.02-6.73,12.5l.17,.12c15.73-23.58,42.05-33.48,78.25-29.4,21.06,2.37,41,9.11,53.6,14-3.32-4.04-10.45-12.37-14.86-14.93-.41-.24-.92-.55-1.52-.91-8.25-4.97-33.36-20.11-63.93-15.05-.13,.02-11.12,1.54-22.95,8.04-9.08,4.99-21.32,15.65-27.19,30.69,.8-1.32,2.78-4.66,3.87-6.12,8.71-11.67,23.95-24.59,58.62-25.3,3.79-.08,10.14,.53,14.16,.78-3.98-.25-7.9-.33-11.65-.26Z"/><path class="cls-17" d="M135.07,186.68c-16.58-10.88-43.4-21.77-78.29-13.38,45.88,3.68,92.01,29.78,104.79,37.51-4.02-5.08-13.03-15.3-26.5-24.14Z"/><path class="cls-17" d="M182.37,197.68c2.7-1.24,23.19-10.24,43.71-7.93-20.33-2.3-44.88,9.86-47.63,11.24-3.68,3.4-6.98,7.28-9.89,11.64l4.02,3c1.69-2.04,7.78-5.65,16.45-9.26,3.04-3.31,11.53-10.65,23.58-10.93-10.16,1.69-16.47,6.45-19.43,9.28,14.67-5.55,34.95-10.46,54.06-8.77,.71,.06,1.42,.11,2.13,.19-.7-.08-1.41-.14-2.13-.19-26.7-1.93-65.07,15.4-72.73,21.12l7.65,5.72c13.67-17.36,42.42-24.21,83.16-19.81,26.53,2.87,50.31,9.67,56.43,11.51-.36-.85-.9-2.01-1.61-3.27l-16.51-6.48s11.15,2.93,15.98,5.57c-1.71-2.8-4.23-5.85-7.56-7.05-.54-.2-1.49-.6-2.93-1.21-56.01-23.87-100.02-25.18-126.75-4.37Z"/></g><polygon class="cls-2" points="324.25 216.88 323.89 216.77 195.2 216.77 186.12 225.75 186.4 225.96 186.11 225.76 183.57 228.27 154.47 228.27 142.98 216.77 .77 216.77 .77 227.5 138.37 227.5 149.87 239 187.88 239 199.38 227.5 337.3 227.5 337.3 216.77 324.21 216.77 324.25 216.88"/><path d="M323.96,216l-.18-.55c-.15-.44-3.69-10.91-11.2-13.64-.5-.18-1.48-.6-2.85-1.18-2.26-.96-5.72-2.44-10.09-4.14-2.79-4.16-9.44-13.39-16.88-17.28-.05-.03-.09-.04-.11-.06,.02,0-.01-.02-.26-.17-8.37-5.05-33.1-17.9-58.67-15.35-.11,.01-12.59,.42-25.51,7.11-14.29,7.4-30.7,23.98-32.62,40.71l-1.76,1.72-.31-.71c-.1-.15-8.6-14.58-27.55-27.03-17.5-11.5-46.2-22.9-83.68-12.41-3.09-.15-6.13,.34-9.2,.42h-.21l-.18,.12c-.09,.05-8.91,5.07-16.93,14.66l-1.96,2.33,2.61-.84c.13-.03,.27-.04,.4-.05,8.11-.54,20.57-1.61,27.4-1.31-18.12,1.25-29.54,5.4-31.8,6.24-7.29,2.74-16.1,18.85-17.46,21.41H0v12.27H138.05l11.5,11.5h38.65l11.5-11.5h138.38v-12.27h-14.11Zm-14.83-13.96c1.44,.61,2.39,1.02,2.93,1.21,3.33,1.21,5.85,4.25,7.56,7.05-4.83-2.63-15.98-5.57-15.98-5.57l16.51,6.48c.71,1.26,1.25,2.42,1.61,3.27-6.13-1.84-29.9-8.65-56.43-11.51-40.73-4.4-69.48,2.45-83.16,19.81l-7.65-5.72c7.66-5.72,46.03-23.05,72.73-21.12-19.11-1.68-39.38,3.23-54.06,8.77,2.96-2.83,9.27-7.59,19.43-9.28-12.05,.28-20.54,7.62-23.58,10.93-8.68,3.6-14.76,7.22-16.45,9.26l-4.02-3c2.9-4.36,6.2-8.24,9.89-11.64,2.75-1.39,27.3-13.54,47.63-11.24-20.52-2.32-41.01,6.69-43.71,7.93,26.73-20.82,70.75-19.5,126.75,4.37Zm12.39,13.96h-126.63l-9.39,9.29-2.1-1.57c16.84-21.35,53.94-22.72,81.94-19.7,26.72,2.88,50.47,10.15,56.18,11.98Zm-90.28-43.25c-34.67,.71-49.91,13.63-58.62,25.3-1.09,1.46-3.07,4.8-3.87,6.12,5.86-15.04,18.11-25.7,27.19-30.69,11.83-6.5,22.81-8.02,22.95-8.04,30.56-5.06,55.67,10.07,63.93,15.05,.6,.36,1.11,.67,1.52,.91,4.41,2.56,11.54,10.88,14.86,14.93-12.59-4.9-32.53-11.63-53.6-14-36.21-4.08-62.53,5.83-78.25,29.4l-.17-.12c.47-1.48,2.29-6.55,6.73-12.5,8.5-11.4,25.79-25.13,59.84-25.82,3.75-.07,7.67,0,11.65,.26-4.02-.25-10.37-.86-14.16-.78Zm-67.01,41.39l.04,.03-.02-.05,1.83-2.07,19.39,13.28-2.2,2.18h-28.47l-1.24-1.24,10.68-12.12Zm-29.15-27.46c13.47,8.84,22.47,19.06,26.5,24.14-12.78-7.73-58.91-33.84-104.79-37.51,34.89-8.4,61.71,2.49,78.29,13.38ZM13,206.76c2.17-.41,5.5,0,6.89,.22-4.44,1.03-7.56,2.09-8.44,2.42,.48-.85,1-1.74,1.55-2.63Zm-1.91,3.28c1.13-.34,9.31-2.66,18.06-2.9-.37-.05-8.88-2.34-15.68-1.13,2.76-4.38,6.2-8.74,9.51-9.98,4.37-1.64,44.29-15.46,99.94,3.85,6.41,2.22,14.02,4.89,20.39,7.83-1.86-1.98-14.29-7.33-20.75-9.57-26.2-9.09-48.79-10.83-65.87-9.93-8.89-.75-25.66-.38-29.47,.11,2.72-3.09,5.6-5.77,8.18-7.94l25.24,.32c-14.53-1.26-21.17-1.45-24.08-1.28,3.42-2.78,6.1-4.54,6.74-4.96,57.22-1.43,118.81,38.24,119.44,38.65l.69,.48-11.4,11.16-8.72-8.73h-4.06c-.32-.19-4.34-2.57-11.21-5.54v-.05s-.04,0-.1,0c-8.57-3.7-21.51-8.3-37.2-10.74l-.22-.03c-4.75-.53-10.42-.88-16.59-.72-1.19,.03-9.41,.55-11.19,1.61,2.43-.31,4.84-.54,7.16-.66,7.89-.43,13.91,.31,18.5,.99-34.91,3.14-63.39,13.23-68.51,15.13H8.04c.43-.93,1.53-3.23,3.04-5.96Zm96.1,.84c-9.95,.04-19.85-.04-27.38,.25-11.05,.42-18.07,1.57-22.76,3.24,4.87-.84,12.91-1.48,23.89-1.9,8.05-.31,17.52-.49,28.16-.56,9.86-.06,17.48,.02,18.71,.03,4.06,1.78,6.89,3.27,8.32,4.06H20.79c5.13-1.65,24.33-7.53,48.73-11.43,4.77,.33,27.08,2.1,37.67,6.31Zm-34.49-6.8c6.64-.99,13.61-1.83,20.77-2.39,12.92,2.27,23.53,5.8,31.06,8.86-3.32,.12-8.75,.28-15.23,.31-.38,0-.75,0-1.13,0-8.93-3.95-27.1-6.03-35.48-6.8Zm264.6,23.42H199.38l-11.5,11.5h-38.01l-11.5-11.5H.77v-10.73H142.98l11.49,11.5h29.11l2.53-2.51,.29,.2-.28-.21,9.08-8.98h128.69l.36,.12-.04-.12h13.09v10.73Z"/></g><text class="cls-16" transform="translate(377.52 108.42)"><tspan class="cls-14"><tspan x="0" y="0">Study</tspan></tspan><tspan class="cls-3"><tspan x="0" y="116.22">Fl</tspan><tspan class="cls-13" x="102.05" y="116.22">o</tspan><tspan x="179.86" y="116.22">w</tspan></tspan></text></g></svg>