<?xml version="1.0" encoding="UTF-8"?><svg id="Layer_2" xmlns="http://www.w3.org/2000/svg" xmlns:xlink="http://www.w3.org/1999/xlink" viewBox="0 0 944.76 224.63"><defs><style>.cls-1{font-family:SpaceGrotesk-Regular, 'Space Grotesk';}.cls-1,.cls-2{fill:#fff;}.cls-3{fill:#efbfac;}.cls-4,.cls-5{fill:#5179c3;font-family:SpaceGrotesk-Bold, 'Space Grotesk';}.cls-6{fill:url(#linear-gradient-17);stroke:url(#linear-gradient-18);}.cls-6,.cls-7,.cls-8,.cls-9,.cls-10,.cls-11,.cls-12,.cls-13,.cls-14{stroke-miterlimit:10;stroke-width:1px;}.cls-7{fill:url(#linear-gradient-3);stroke:url(#linear-gradient-4);}.cls-8{fill:url(#linear-gradient-7);stroke:url(#linear-gradient-8);}.cls-15{fill:#e1e1e1;}.cls-5{letter-spacing:0em;}.cls-9{fill:url(#linear-gradient-11);stroke:url(#linear-gradient-12);}.cls-16{font-size:127.56px;}.cls-10{fill:url(#linear-gradient-15);stroke:url(#linear-gradient-16);}.cls-17{fill:#f1e6cf;}.cls-11{fill:url(#linear-gradient-9);stroke:url(#linear-gradient-10);}.cls-12{fill:url(#linear-gradient-13);stroke:url(#linear-gradient-14);}.cls-13{fill:url(#linear-gradient-5);stroke:url(#linear-gradient-6);}.cls-14{fill:url(#linear-gradient);stroke:url(#linear-gradient-2);}</style><linearGradient id="linear-gradient" x1="1020.88" y1="-207.98" x2="1039.78" y2="62.4" gradientTransform="translate(-767.63 -536.84) rotate(45)" gradientUnits="userSpaceOnUse"><stop offset=".03" stop-color="#77accf"/><stop offset=".16" stop-color="#6594c9"/><stop offset=".36" stop-color="#5179c3"/><stop offset=".57" stop-color="#4265bf"/><stop offset=".77" stop-color="#3959bc"/><stop offset=".98" stop-color="#3756bc"/></linearGradient><linearGradient id="linear-gradient-2" x1="999.46" y1="-109.7" x2="1056.03" y2="-109.7" gradientTransform="translate(-767.63 -536.84) rotate(45)" gradientUnits="userSpaceOnUse"><stop offset="0" stop-color="#77accf"/><stop offset=".19" stop-color="#72a6cd"/><stop offset=".43" stop-color="#6695c9"/><stop offset=".71" stop-color="#5179c3"/><stop offset="1" stop-color="#3756bc"/><stop offset="1" stop-color="#6d7aa8"/><stop offset="1" stop-color="#999"/></linearGradient><linearGradient id="linear-gradient-3" x1="1020.88" y1="-207.98" x2="1039.78" y2="62.4" gradientTransform="translate(-761.7 -566.69) rotate(45)" xlink:href="#linear-gradient"/><linearGradient id="linear-gradient-4" x1="999.46" y1="-109.7" x2="1056.03" y2="-109.7" gradientTransform="translate(-761.7 -566.69) rotate(45)" xlink:href="#linear-gradient-2"/><linearGradient id="linear-gradient-5" x1="1020.88" y1="-207.98" x2="1039.78" y2="62.4" gradientTransform="translate(-744.79 -592) rotate(45)" xlink:href="#linear-gradient"/><linearGradient id="linear-gradient-6" x1="999.46" y1="-109.7" x2="1056.03" y2="-109.7" gradientTransform="translate(-744.79 -592) rotate(45)" xlink:href="#linear-gradient-2"/><linearGradient id="linear-gradient-7" x1="1020.88" y1="-207.98" x2="1039.78" y2="62.4" gradientTransform="translate(-719.48 -608.91) rotate(45)" xlink:href="#linear-gradient"/><linearGradient id="linear-gradient-8" x1="999.46" x2="1056.03" gradientTransform="translate(-719.48 -608.91) rotate(45)" xlink:href="#linear-gradient-2"/><linearGradient id="linear-gradient-9" y1="-207.98" x2="1039.78" y2="62.4" gradientTransform="translate(-689.63 -614.85) rotate(45)" xlink:href="#linear-gradient"/><linearGradient id="linear-gradient-10" x1="999.46" x2="1056.03" gradientTransform="translate(-689.63 -614.85) rotate(45)" xlink:href="#linear-gradient-2"/><linearGradient id="linear-gradient-11" x1="1020.88" y1="-207.98" x2="1039.78" y2="62.4" gradientTransform="translate(-659.77 -608.91) rotate(45)" xlink:href="#linear-gradient"/><linearGradient id="linear-gradient-12" x1="999.46" x2="1056.03" gradientTransform="translate(-659.77 -608.91) rotate(45)" xlink:href="#linear-gradient-2"/><linearGradient id="linear-gradient-13" x1="1020.88" y1="-207.98" x2="1039.78" y2="62.4" gradientTransform="translate(-634.46 -592) rotate(45)" xlink:href="#linear-gradient"/><linearGradient id="linear-gradient-14" x1="999.46" y1="-109.7" x2="1056.03" y2="-109.7" gradientTransform="translate(-634.46 -592) rotate(45)" xlink:href="#linear-gradient-2"/><linearGradient id="linear-gradient-15" x1="1020.88" y1="-207.98" x2="1039.78" y2="62.4" gradientTransform="translate(-617.55 -566.7) rotate(45)" xlink:href="#linear-gradient"/><linearGradient id="linear-gradient-16" x1="999.46" y1="-109.7" x2="1056.03" y2="-109.7" gradientTransform="translate(-617.55 -566.7) rotate(45)" xlink:href="#linear-gradient-2"/><linearGradient id="linear-gradient-17" x1="1020.88" y1="-207.98" x2="1039.78" y2="62.4" gradientTransform="translate(-611.62 -536.84) rotate(45)" xlink:href="#linear-gradient"/><linearGradient id="linear-gradient-18" x1="999.46" y1="-109.7" x2="1056.03" y2="-109.7" gradientTransform="translate(-611.62 -536.84) rotate(45)" xlink:href="#linear-gradient-2"/></defs><g id="Pages"><g><g id="_Radial_Repeat_"><rect class="cls-14" x="31.46" y="78.51" width="10.4" height="67.61" transform="translate(-75.65 148.98) rotate(-90)"/></g><g id="_Radial_Repeat_-2"><rect class="cls-7" x="37.4" y="48.66" width="10.4" height="67.61" transform="translate(-49.88 90.26) rotate(-67.5)"/></g><g id="_Radial_Repeat_-3"><rect class="cls-13" x="54.31" y="23.35" width="10.4" height="67.61" transform="translate(-22.98 58.82) rotate(-45)"/></g><g id="_Radial_Repeat_-4"><rect class="cls-8" x="79.62" y="6.44" width="10.4" height="67.61" transform="translate(-8.94 35.52) rotate(-22.5)"/></g><g id="_Radial_Repeat_-5"><rect class="cls-11" x="109.47" y=".5" width="10.4" height="67.61"/></g><g id="_Radial_Repeat_-6"><rect class="cls-9" x="139.33" y="6.44" width="10.4" height="67.61" transform="translate(26.4 -52.24) rotate(22.5)"/></g><g id="_Radial_Repeat_-7"><rect class="cls-12" x="164.63" y="23.35" width="10.4" height="67.61" transform="translate(90.16 -103.35) rotate(45)"/></g><g id="_Radial_Repeat_-8"><rect class="cls-10" x="181.54" y="48.66" width="10.4" height="67.61" transform="translate(191.46 -121.63) rotate(67.5)"/></g><g id="_Radial_Repeat_-9"><rect class="cls-6" x="187.48" y="78.51" width="10.4" height="67.61" transform="translate(305 -80.37) rotate(90)"/></g></g><g><path class="cls-15" d="M8.82,128.76c-.37,.61-.72,1.21-1.05,1.79,.6-.22,2.71-.94,5.72-1.64-.94-.14-3.2-.42-4.67-.15Z"/><path d="M167.73,121.43c.49,.04,.97,.08,1.44,.13-.48-.05-.96-.09-1.44-.13Z"/><path class="cls-17" d="M124.42,140.26l1.42,1.06,6.37-6.3h85.91c-3.87-1.24-19.99-6.17-38.11-8.13-19-2.05-44.16-1.12-55.59,13.36Z"/><polygon class="cls-2" points="105.01 142.82 124.32 142.82 125.82 141.35 112.67 132.34 111.42 133.75 111.44 133.78 111.41 133.76 104.16 141.98 105.01 142.82"/><g><path class="cls-17" d="M74.15,131.54c4.39-.02,8.08-.13,10.33-.21-5.11-2.08-12.31-4.47-21.07-6.01-4.85,.38-9.59,.94-14.09,1.62,5.68,.52,18.01,1.93,24.07,4.61,.25,0,.51,0,.76,0Z"/><path class="cls-17" d="M14.11,135.02H92.36c-.97-.54-2.89-1.55-5.64-2.75-.84,0-6-.06-12.69-.02-7.22,.04-13.65,.17-19.11,.38-7.45,.29-12.9,.72-16.21,1.29,3.18-1.13,7.94-1.91,15.44-2.2,5.11-.2,11.82-.14,18.57-.17-7.18-2.85-22.32-4.05-25.56-4.28-16.55,2.65-29.58,6.63-33.06,7.76Z"/><path class="cls-17" d="M59.96,124.76c-3.12-.47-7.2-.96-12.55-.67-1.58,.08-3.21,.24-4.86,.45,1.21-.71,6.78-1.07,7.59-1.09,4.18-.11,8.03,.12,11.25,.49l.15,.02c10.64,1.65,19.42,4.77,25.23,7.28h.07v.03c4.66,2.02,7.39,3.63,7.61,3.76h2.76l5.92,5.92,7.73-7.57-.47-.32c-.43-.28-42.2-27.19-81.03-26.22-.44,.29-2.26,1.48-4.57,3.37,1.97-.12,6.48,.01,16.33,.87l-17.12-.22c-1.75,1.47-3.7,3.29-5.55,5.39,2.58-.33,13.96-.58,19.99-.08,11.59-.61,26.91,.57,44.69,6.74,4.38,1.52,12.81,5.15,14.08,6.49-4.32-1.99-9.48-3.8-13.83-5.31-37.76-13.1-64.84-3.72-67.8-2.61-2.25,.84-4.58,3.8-6.45,6.77,4.61-.82,10.39,.73,10.64,.77-5.93,.16-11.49,1.73-12.25,1.97-1.03,1.85-1.77,3.41-2.06,4.04H13.49c3.47-1.29,22.79-8.13,46.48-10.26Z"/><path class="cls-17" d="M158.57,106.04c-23.1,.47-34.83,9.79-40.59,17.52-3.01,4.03-4.24,7.47-4.56,8.48l.11,.08c10.67-16,28.52-22.71,53.09-19.95,14.29,1.61,27.81,6.18,36.36,9.5-2.25-2.74-7.09-8.39-10.08-10.13-.28-.16-.63-.37-1.03-.62-5.6-3.37-22.63-13.64-43.37-10.21-.09,.01-7.54,1.05-15.57,5.45-6.16,3.38-14.47,10.62-18.44,20.82,.54-.89,1.88-3.16,2.62-4.15,5.91-7.92,16.25-16.68,39.77-17.16,2.57-.05,6.88,.36,9.61,.53-2.7-.17-5.36-.22-7.9-.17Z"/><path class="cls-17" d="M91.64,115.13c-11.25-7.38-29.44-14.77-53.11-9.07,31.13,2.49,62.42,20.2,71.09,25.45-2.73-3.45-8.84-10.38-17.98-16.37Z"/><path class="cls-17" d="M123.72,122.59c1.83-.84,15.73-6.95,29.65-5.38-13.79-1.56-30.45,6.69-32.31,7.63-2.5,2.31-4.74,4.94-6.71,7.9l2.72,2.04c1.15-1.38,5.28-3.84,11.16-6.28,2.06-2.24,7.82-7.22,16-7.41-6.89,1.15-11.17,4.38-13.18,6.3,9.95-3.76,23.71-7.09,36.67-5.95,.48,.04,.96,.08,1.44,.13-.47-.05-.96-.1-1.44-.13-18.11-1.31-44.14,10.44-49.34,14.33l5.19,3.88c9.27-11.78,28.78-16.43,56.41-13.44,18,1.94,34.13,6.56,38.29,7.81-.24-.58-.61-1.37-1.09-2.22l-11.2-4.4s7.56,1.99,10.84,3.78c-1.16-1.9-2.87-3.97-5.13-4.79-.36-.13-1.01-.41-1.98-.82-38-16.19-67.85-17.08-85.99-2.96Z"/></g><polygon class="cls-3" points="219.97 135.62 219.72 135.54 132.42 135.54 126.26 141.64 126.45 141.78 126.25 141.64 124.54 143.34 104.79 143.34 97 135.54 .52 135.54 .52 142.82 93.87 142.82 101.67 150.63 127.46 150.63 135.26 142.82 228.83 142.82 228.83 135.54 219.95 135.54 219.97 135.62"/><path d="M219.77,135.02l-.12-.37c-.1-.3-2.5-7.4-7.6-9.25-.34-.12-1.01-.41-1.93-.8-1.53-.65-3.88-1.65-6.84-2.81-1.89-2.82-6.41-9.08-11.45-11.72l-.07-.04s0-.01-.18-.11c-5.68-3.42-22.45-12.14-39.8-10.41-.08,0-8.54,.29-17.31,4.82-9.69,5.02-20.83,16.27-22.13,27.61l-1.19,1.17-.21-.48c-.07-.1-5.83-9.89-18.69-18.34-11.87-7.8-31.34-15.53-56.77-8.42-2.1-.1-4.16,.23-6.24,.29h-.14l-.12,.08c-.06,.04-6.04,3.44-11.48,9.95l-1.33,1.58,1.77-.57c.09-.02,.18-.03,.27-.04,5.5-.36,13.96-1.09,18.59-.89-12.29,.85-20.04,3.66-21.57,4.24-4.94,1.86-10.92,12.79-11.85,14.52H0v8.32H93.65l7.8,7.8h26.22l7.8-7.8h93.87v-8.32h-9.57Zm-10.06-9.47c.98,.42,1.62,.69,1.98,.82,2.26,.82,3.97,2.89,5.13,4.79-3.28-1.79-10.84-3.78-10.84-3.78l11.2,4.4c.48,.85,.85,1.64,1.09,2.22-4.16-1.25-20.29-5.86-38.29-7.81-27.63-2.98-47.14,1.66-56.41,13.44l-5.19-3.88c5.19-3.88,31.23-15.64,49.34-14.33-12.96-1.14-26.72,2.19-36.67,5.95,2.01-1.92,6.29-5.15,13.18-6.3-8.17,.19-13.93,5.17-16,7.41-5.89,2.44-10.01,4.9-11.16,6.28l-2.72-2.04c1.97-2.96,4.21-5.59,6.71-7.9,1.86-.94,18.52-9.19,32.31-7.63-13.92-1.57-27.82,4.54-29.65,5.38,18.14-14.12,47.99-13.23,85.99,2.96Zm8.41,9.47h-85.91l-6.37,6.3-1.42-1.06c11.43-14.48,36.59-15.42,55.59-13.36,18.12,1.96,34.24,6.89,38.11,8.13Zm-61.25-29.34c-23.52,.48-33.86,9.24-39.77,17.16-.74,.99-2.08,3.26-2.62,4.15,3.98-10.2,12.29-17.44,18.44-20.82,8.02-4.41,15.48-5.44,15.57-5.45,20.73-3.43,37.77,6.83,43.37,10.21,.41,.25,.75,.45,1.03,.62,2.99,1.74,7.83,7.38,10.08,10.13-8.54-3.32-22.07-7.89-36.36-9.5-24.56-2.76-42.42,3.95-53.09,19.95l-.11-.08c.32-1,1.55-4.44,4.56-8.48,5.77-7.73,17.49-17.05,40.59-17.52,2.54-.05,5.2,0,7.9,.17-2.73-.17-7.04-.58-9.61-.53Zm-45.46,28.08l.03,.02v-.03l1.23-1.41,13.15,9.01-1.5,1.48h-19.32l-.84-.84,7.25-8.22Zm-19.78-18.63c9.14,6,15.25,12.93,17.98,16.37-8.67-5.25-39.96-22.96-71.09-25.45,23.67-5.7,41.86,1.69,53.11,9.07Zm-82.82,13.62c1.47-.28,3.73,0,4.67,.15-3.01,.7-5.13,1.42-5.72,1.64,.33-.58,.68-1.18,1.05-1.79Zm-1.3,2.22c.77-.23,6.32-1.81,12.25-1.97-.25-.03-6.03-1.59-10.64-.77,1.87-2.97,4.21-5.93,6.45-6.77,2.96-1.11,30.04-10.49,67.8,2.61,4.35,1.51,9.51,3.32,13.83,5.31-1.26-1.34-9.7-4.98-14.08-6.49-17.78-6.17-33.1-7.35-44.69-6.74-6.03-.51-17.41-.26-19.99,.08,1.84-2.1,3.8-3.92,5.55-5.39l17.12,.22c-9.86-.86-14.36-.99-16.33-.87,2.32-1.89,4.14-3.08,4.57-3.37,38.82-.97,80.6,25.94,81.03,26.22l.47,.32-7.73,7.57-5.92-5.92h-2.76c-.22-.13-2.95-1.74-7.61-3.76v-.03h-.07c-5.81-2.51-14.59-5.63-25.23-7.28l-.15-.02c-3.22-.36-7.07-.6-11.25-.49-.81,.02-6.38,.38-7.59,1.09,1.65-.21,3.28-.36,4.86-.45,5.36-.29,9.44,.21,12.55,.67-23.68,2.13-43,8.98-46.48,10.26H5.46c.29-.63,1.04-2.19,2.06-4.04Zm65.2,.57c-6.75,.03-13.46-.03-18.57,.17-7.5,.29-12.26,1.07-15.44,2.2,3.3-.57,8.76-1,16.21-1.29,5.46-.21,11.89-.34,19.11-.38,6.69-.04,11.86,.01,12.69,.02,2.75,1.21,4.67,2.22,5.64,2.75H14.11c3.48-1.12,16.5-5.11,33.06-7.76,3.24,.23,18.37,1.43,25.56,4.28Zm-23.4-4.61c4.5-.67,9.24-1.24,14.09-1.62,8.77,1.54,15.96,3.94,21.07,6.01-2.25,.08-5.93,.19-10.33,.21-.25,0-.51,0-.76,0-6.06-2.68-18.39-4.09-24.07-4.61Zm179.51,15.89h-93.57l-7.8,7.8h-25.79l-7.8-7.8H.52v-7.28H97l7.79,7.8h19.75l1.72-1.7,.2,.13-.19-.14,6.16-6.09h87.3l.25,.08-.03-.08h8.88v7.28Z"/></g><text class="cls-16" transform="translate(240.57 116.33)"><tspan class="cls-1" x="0" y="0">Study</tspan><tspan class="cls-4" x="375.15" y="0">Fl</tspan><tspan class="cls-5" x="477.19" y="0">o</tspan><tspan class="cls-4" x="555.01" y="0">w</tspan></text></g></svg>