<?xml version="1.0" encoding="UTF-8"?><svg id="Layer_2" xmlns="http://www.w3.org/2000/svg" xmlns:xlink="http://www.w3.org/1999/xlink" viewBox="0 0 441 431"><defs><style>.cls-1{fill:#fff;}.cls-2{fill:#efbfac;}.cls-3{fill:url(#linear-gradient-9);stroke:url(#linear-gradient-10);}.cls-3,.cls-4,.cls-5,.cls-6,.cls-7,.cls-8,.cls-9,.cls-10,.cls-11{stroke-miterlimit:10;}.cls-12{fill:#e1e1e1;}.cls-4{fill:url(#linear-gradient-3);stroke:url(#linear-gradient-4);}.cls-5{fill:url(#linear-gradient-7);stroke:url(#linear-gradient-8);}.cls-6{fill:url(#linear-gradient-11);stroke:url(#linear-gradient-12);}.cls-13{fill:#f1e6cf;}.cls-7{fill:url(#linear-gradient-15);stroke:url(#linear-gradient-16);}.cls-8{fill:url(#linear-gradient);stroke:url(#linear-gradient-2);}.cls-9{fill:url(#linear-gradient-13);stroke:url(#linear-gradient-14);}.cls-10{fill:url(#linear-gradient-5);stroke:url(#linear-gradient-6);}.cls-11{fill:url(#linear-gradient-17);stroke:url(#linear-gradient-18);}</style><linearGradient id="linear-gradient" x1="101.22" y1="-79.53" x2="137.57" y2="440.37" gradientTransform="translate(66.96 57.2) rotate(45)" gradientUnits="userSpaceOnUse"><stop offset=".03" stop-color="#77accf"/><stop offset=".16" stop-color="#6594c9"/><stop offset=".36" stop-color="#5179c3"/><stop offset=".57" stop-color="#4265bf"/><stop offset=".77" stop-color="#3959bc"/><stop offset=".98" stop-color="#3756bc"/></linearGradient><linearGradient id="linear-gradient-2" x1="60.69" y1="109.43" x2="168.17" y2="109.43" gradientTransform="translate(66.96 57.2) rotate(45)" gradientUnits="userSpaceOnUse"><stop offset="0" stop-color="#77accf"/><stop offset=".19" stop-color="#72a6cd"/><stop offset=".43" stop-color="#6695c9"/><stop offset=".71" stop-color="#5179c3"/><stop offset="1" stop-color="#3756bc"/><stop offset="1" stop-color="#6d7aa8"/><stop offset="1" stop-color="#999"/></linearGradient><linearGradient id="linear-gradient-3" y1="-79.53" y2="440.37" gradientTransform="translate(78.38 -.2) rotate(45)" xlink:href="#linear-gradient"/><linearGradient id="linear-gradient-4" x1="60.69" gradientTransform="translate(78.38 -.2) rotate(45)" xlink:href="#linear-gradient-2"/><linearGradient id="linear-gradient-5" y1="-79.53" x2="137.57" y2="440.37" gradientTransform="translate(110.9 -48.87) rotate(45)" xlink:href="#linear-gradient"/><linearGradient id="linear-gradient-6" x1="60.69" y1="109.43" x2="168.17" y2="109.43" gradientTransform="translate(110.9 -48.87) rotate(45)" xlink:href="#linear-gradient-2"/><linearGradient id="linear-gradient-7" x1="101.22" y1="-79.53" x2="137.57" y2="440.37" gradientTransform="translate(159.56 -81.38) rotate(45)" xlink:href="#linear-gradient"/><linearGradient id="linear-gradient-8" x1="60.69" gradientTransform="translate(159.56 -81.38) rotate(45)" xlink:href="#linear-gradient-2"/><linearGradient id="linear-gradient-9" y1="-79.53" x2="137.57" y2="440.37" gradientTransform="translate(216.96 -92.8) rotate(45)" xlink:href="#linear-gradient"/><linearGradient id="linear-gradient-10" x1="60.69" y1="109.43" x2="168.17" y2="109.43" gradientTransform="translate(216.96 -92.8) rotate(45)" xlink:href="#linear-gradient-2"/><linearGradient id="linear-gradient-11" x1="101.22" y1="-79.53" x2="137.57" y2="440.37" gradientTransform="translate(274.37 -81.38) rotate(45)" xlink:href="#linear-gradient"/><linearGradient id="linear-gradient-12" x1="60.69" y1="109.43" y2="109.43" gradientTransform="translate(274.37 -81.38) rotate(45)" xlink:href="#linear-gradient-2"/><linearGradient id="linear-gradient-13" x1="101.22" y1="-79.53" x2="137.57" y2="440.37" gradientTransform="translate(323.03 -48.86) rotate(45)" xlink:href="#linear-gradient"/><linearGradient id="linear-gradient-14" x1="60.69" y1="109.43" x2="168.17" y2="109.43" gradientTransform="translate(323.03 -48.86) rotate(45)" xlink:href="#linear-gradient-2"/><linearGradient id="linear-gradient-15" x1="101.22" y1="-79.53" x2="137.57" y2="440.37" gradientTransform="translate(355.55 -.2) rotate(45)" xlink:href="#linear-gradient"/><linearGradient id="linear-gradient-16" x1="60.69" y1="109.43" x2="168.17" y2="109.43" gradientTransform="translate(355.55 -.2) rotate(45)" xlink:href="#linear-gradient-2"/><linearGradient id="linear-gradient-17" y1="-79.53" x2="137.57" y2="440.37" gradientTransform="translate(366.96 57.2) rotate(45)" xlink:href="#linear-gradient"/><linearGradient id="linear-gradient-18" x1="60.69" y1="109.43" y2="109.43" gradientTransform="translate(366.96 57.2) rotate(45)" xlink:href="#linear-gradient-2"/></defs><g id="Blocks"><g><g id="_Radial_Repeat_"><rect class="cls-8" x="60.5" y="150.5" width="20" height="130" transform="translate(-145 286) rotate(-90)"/></g><g id="_Radial_Repeat_-2"><rect class="cls-4" x="71.92" y="93.1" width="20" height="130" transform="translate(-95.49 173.28) rotate(-67.5)"/></g><g id="_Radial_Repeat_-3"><rect class="cls-10" x="104.43" y="44.43" width="20" height="130" transform="translate(-43.86 112.97) rotate(-45)"/></g><g id="_Radial_Repeat_-4"><rect class="cls-5" x="153.1" y="11.92" width="20" height="130" transform="translate(-17.02 68.27) rotate(-22.5)"/></g><g id="_Radial_Repeat_-5"><rect class="cls-3" x="210.5" y=".5" width="20" height="130"/></g><g id="_Radial_Repeat_-6"><rect class="cls-6" x="267.9" y="11.92" width="20" height="130" transform="translate(50.59 -100.49) rotate(22.5)"/></g><g id="_Radial_Repeat_-7"><rect class="cls-9" x="316.57" y="44.43" width="20" height="130" transform="translate(173.03 -198.86) rotate(45)"/></g><g id="_Radial_Repeat_-8"><rect class="cls-7" x="349.08" y="93.1" width="20" height="130" transform="translate(367.73 -234.15) rotate(67.5)"/></g><g id="_Radial_Repeat_-9"><rect class="cls-11" x="360.5" y="150.5" width="20" height="130" transform="translate(586 -155) rotate(90)"/></g></g></g><g id="Pages"><g><path class="cls-12" d="M16.95,247.12c-.72,1.17-1.39,2.32-2.02,3.44,1.15-.42,5.21-1.81,11-3.15-1.81-.27-6.16-.81-8.98-.28Z"/><path d="M322.52,233.03c.94,.07,1.86,.15,2.77,.25-.92-.11-1.85-.17-2.77-.25Z"/><path class="cls-13" d="M239.24,269.24l2.74,2.04,12.25-12.11h165.19c-7.44-2.39-38.43-11.87-73.28-15.63-36.53-3.94-84.92-2.15-106.89,25.7Z"/><polygon class="cls-1" points="201.91 274.17 239.05 274.17 241.93 271.33 216.64 254.01 214.25 256.71 214.28 256.78 214.23 256.74 200.29 272.55 201.91 274.17"/><g><path class="cls-13" d="M142.59,252.47c8.45-.05,15.54-.25,19.86-.41-9.82-3.99-23.66-8.6-40.52-11.56-9.33,.73-18.43,1.81-27.09,3.11,10.93,1,34.63,3.71,46.28,8.87,.49,0,.98,0,1.47,0Z"/><path class="cls-13" d="M27.13,259.17H177.59c-1.86-1.03-5.55-2.97-10.85-5.29-1.61-.02-11.54-.12-24.41-.04-13.88,.08-26.24,.32-36.74,.72-14.33,.55-24.81,1.38-31.17,2.47,6.11-2.18,15.27-3.67,29.68-4.23,9.82-.38,22.73-.27,35.71-.32-13.81-5.48-42.91-7.79-49.14-8.23-31.83,5.09-56.87,12.76-63.56,14.91Z"/><path class="cls-13" d="M115.3,239.43c-5.99-.9-13.84-1.85-24.13-1.3-3.03,.16-6.17,.45-9.34,.86,2.32-1.37,13.04-2.06,14.6-2.1,8.04-.22,15.44,.24,21.64,.93l.28,.04c20.47,3.18,37.35,9.18,48.52,14.01,.08,0,.13,0,.13,0v.06c8.96,3.88,14.21,6.98,14.63,7.23h5.3l11.38,11.39,14.87-14.56-.89-.62c-.82-.54-81.15-52.29-155.8-50.42-.84,.55-4.34,2.85-8.8,6.47,3.79-.22,12.45,.02,31.41,1.67l-32.92-.42c-3.36,2.83-7.12,6.33-10.66,10.36,4.96-.64,26.84-1.12,38.44-.14,22.29-1.17,51.75,1.09,85.93,12.95,8.42,2.92,24.63,9.9,27.07,12.49-8.3-3.83-18.23-7.31-26.6-10.21-72.6-25.19-124.67-7.16-130.37-5.02-4.32,1.62-8.8,7.31-12.41,13.02,8.87-1.58,19.98,1.41,20.46,1.47-11.41,.31-22.09,3.33-23.56,3.78-1.97,3.57-3.4,6.56-3.97,7.78h15.44c6.68-2.47,43.83-15.64,89.37-19.73Z"/><path class="cls-13" d="M304.91,203.44c-44.42,.91-66.97,18.82-78.06,33.68-5.79,7.75-8.16,14.37-8.77,16.3l.22,.16c20.52-30.76,54.85-43.67,102.08-38.36,27.48,3.09,53.48,11.88,69.91,18.27-4.33-5.28-13.64-16.13-19.39-19.47-.54-.31-1.2-.71-1.99-1.19-10.76-6.49-43.52-26.23-83.39-19.63-.17,.02-14.51,2.01-29.93,10.49-11.84,6.51-27.82,20.42-35.46,40.04,1.04-1.72,3.62-6.07,5.04-7.98,11.36-15.22,31.24-32.08,76.47-33,4.94-.1,13.22,.7,18.47,1.02-5.2-.32-10.31-.43-15.2-.33Z"/><path class="cls-13" d="M176.2,220.92c-21.63-14.2-56.61-28.4-102.13-17.45,59.85,4.79,120.02,38.85,136.69,48.93-5.25-6.63-17-19.95-34.57-31.49Z"/><path class="cls-13" d="M237.9,235.27c3.52-1.61,30.25-13.36,57.02-10.34-26.51-3-58.55,12.86-62.13,14.67-4.81,4.43-9.11,9.5-12.9,15.19l5.24,3.92c2.21-2.66,10.14-7.37,21.46-12.08,3.97-4.31,15.04-13.89,30.76-14.25-13.25,2.21-21.48,8.42-25.35,12.11,19.14-7.24,45.59-13.64,70.52-11.45,.93,.08,1.85,.15,2.77,.25-.91-.1-1.84-.19-2.77-.25-34.83-2.52-84.88,20.08-94.87,27.55l9.98,7.46c17.83-22.65,55.34-31.59,108.47-25.85,34.61,3.74,65.63,12.61,73.62,15.02-.47-1.11-1.17-2.63-2.1-4.27l-21.54-8.45s14.54,3.83,20.85,7.26c-2.23-3.66-5.52-7.62-9.87-9.2-.7-.25-1.94-.78-3.82-1.58-73.06-31.14-130.47-32.85-165.35-5.7Z"/></g><polygon class="cls-2" points="422.97 260.32 422.5 260.17 254.63 260.17 242.78 271.89 243.15 272.16 242.77 271.9 239.46 275.17 201.5 275.17 186.51 260.17 1 260.17 1 274.17 180.49 274.17 195.49 289.17 245.08 289.17 260.08 274.17 440 274.17 440 260.17 422.92 260.17 422.97 260.32"/><path d="M422.59,259.17l-.24-.72c-.19-.58-4.82-14.23-14.61-17.79-.65-.24-1.93-.78-3.71-1.54-2.95-1.26-7.46-3.18-13.16-5.41-3.64-5.42-12.32-17.47-22.02-22.54-.07-.04-.11-.06-.14-.07,.02,0-.02-.02-.34-.22-10.92-6.58-43.17-23.34-76.54-20.03-.15,.01-16.43,.55-33.28,9.28-18.64,9.65-40.05,31.28-42.55,53.1l-2.29,2.24-.41-.93c-.13-.2-11.22-19.01-35.93-35.26-22.83-15-60.27-29.87-109.16-16.19-4.03-.19-8,.44-12,.55h-.27l-.23,.15c-.11,.07-11.62,6.61-22.08,19.13l-2.55,3.04,3.41-1.09c.18-.03,.35-.06,.53-.07,10.58-.7,26.84-2.1,35.75-1.7-23.63,1.64-38.54,7.04-41.48,8.14-9.51,3.57-21,24.59-22.78,27.92H0v16H180.08l15,15h50.41l15-15h180.51v-16h-18.41Zm-19.34-18.2c1.88,.8,3.12,1.33,3.82,1.58,4.35,1.58,7.64,5.55,9.87,9.2-6.31-3.44-20.85-7.26-20.85-7.26l21.54,8.45c.92,1.64,1.63,3.16,2.1,4.27-7.99-2.41-39.01-11.28-73.62-15.02-53.14-5.74-90.64,3.2-108.47,25.85l-9.98-7.46c9.99-7.46,60.04-30.07,94.87-27.55-24.92-2.19-51.38,4.21-70.52,11.45,3.87-3.69,12.09-9.9,25.35-12.11-15.72,.36-26.79,9.94-30.76,14.25-11.32,4.7-19.26,9.42-21.46,12.08l-5.24-3.92c3.79-5.69,8.09-10.75,12.9-15.19,3.58-1.81,35.61-17.67,62.13-14.67-26.77-3.02-53.5,8.73-57.02,10.34,34.87-27.15,92.29-25.44,165.35,5.7Zm16.16,18.2H254.22l-12.25,12.11-2.74-2.04c21.97-27.85,70.36-29.64,106.89-25.7,34.85,3.76,65.84,13.24,73.28,15.63Zm-117.77-56.42c-45.23,.92-65.11,17.78-76.47,33-1.42,1.91-4,6.26-5.04,7.98,7.65-19.62,23.62-33.53,35.46-40.04,15.43-8.48,29.76-10.46,29.93-10.49,39.87-6.6,72.62,13.14,83.39,19.63,.78,.47,1.45,.87,1.99,1.19,5.75,3.34,15.05,14.2,19.39,19.47-16.43-6.39-42.44-15.18-69.91-18.27-47.23-5.32-81.56,7.6-102.08,38.36l-.22-.16c.61-1.93,2.99-8.55,8.77-16.3,11.09-14.87,33.64-32.78,78.06-33.68,4.89-.1,10,.01,15.2,.33-5.25-.32-13.53-1.12-18.47-1.02Zm-87.41,53.99l.05,.04-.03-.06,2.39-2.71,25.29,17.32-2.88,2.84h-37.14l-1.62-1.62,13.94-15.81Zm-38.03-35.82c17.57,11.53,29.32,24.86,34.57,31.49-16.67-10.09-76.84-44.14-136.69-48.93,45.52-10.95,80.5,3.25,102.13,17.45ZM16.95,247.12c2.83-.53,7.18,0,8.98,.28-5.79,1.35-9.86,2.73-11,3.15,.63-1.11,1.3-2.27,2.02-3.44Zm-2.49,4.27c1.47-.45,12.15-3.47,23.56-3.78-.48-.06-11.59-3.05-20.46-1.47,3.6-5.71,8.09-11.4,12.41-13.02,5.7-2.14,57.77-20.17,130.37,5.02,8.36,2.9,18.29,6.38,26.6,10.21-2.43-2.59-18.64-9.57-27.07-12.49-34.18-11.86-63.64-14.13-85.93-12.95-11.59-.98-33.48-.5-38.44,.14,3.54-4.03,7.3-7.53,10.66-10.36l32.92,.42c-18.95-1.65-27.61-1.9-31.41-1.67,4.46-3.63,7.95-5.92,8.8-6.47,74.65-1.87,154.98,49.88,155.8,50.42l.89,.62-14.87,14.56-11.38-11.39h-5.3c-.42-.25-5.66-3.35-14.63-7.23v-.06s-.05,0-.13,0c-11.18-4.83-28.06-10.82-48.52-14.01l-.28-.04c-6.2-.7-13.6-1.15-21.64-.93-1.55,.04-12.28,.72-14.6,2.1,3.17-.41,6.31-.7,9.34-.86,10.3-.56,18.14,.4,24.13,1.3-45.54,4.1-82.69,17.26-89.37,19.73H10.49c.57-1.21,2-4.21,3.97-7.78Zm125.36,1.09c-12.98,.05-25.89-.05-35.71,.32-14.42,.55-23.57,2.05-29.68,4.23,6.35-1.09,16.84-1.93,31.17-2.47,10.5-.4,22.86-.65,36.74-.72,12.87-.07,22.8,.02,24.41,.04,5.29,2.32,8.99,4.26,10.85,5.29H27.13c6.69-2.16,31.73-9.82,63.56-14.91,6.23,.44,35.33,2.74,49.14,8.23Zm-44.99-8.87c8.66-1.3,17.76-2.39,27.09-3.11,16.86,2.96,30.7,7.57,40.52,11.56-4.33,.16-11.41,.36-19.86,.41-.49,0-.98,0-1.47,0-11.65-5.16-35.35-7.87-46.28-8.87Zm345.16,30.56h-179.92l-15,15h-49.59l-15-15H1v-14H186.51l14.99,15h37.97l3.3-3.27,.38,.26-.36-.27,11.85-11.72h167.87l.47,.15-.05-.15h17.08v14Z"/></g></g></svg>